<svg xmlns="http://www.w3.org/2000/svg" width="822" height="552" viewBox="0 0 822 552" version="1.1"><path d="M 19.994 0.934 C -3.479 8.074, -5.505 39.960, 13.876 97.197 C 43.325 184.164, 96.362 228.295, 189.741 243.527 C 259.132 254.846, 289.898 277.590, 314.253 335.574 C 338.070 392.276, 337.151 429.377, 311.375 451.770 C 247.213 507.514, 176.482 413.730, 219.159 329.500 C 230.768 306.588, 229.157 293.239, 213.479 282.441 C 190.196 266.405, 164.126 291.802, 152.452 341.895 C 120.277 479.948, 251.432 580.806, 351.617 495.053 C 358.958 488.770, 358 488.378, 361.884 499.250 C 387.210 570.152, 436.059 569.613, 460.688 498.160 C 463.839 489.016, 464.105 488.853, 469 493.067 C 585.702 593.525, 728.506 448.126, 655.184 303.500 C 636.901 267.439, 595.299 269.882, 595.577 307 L 595.641 315.500 602.824 329.500 C 642.163 406.177, 585.204 497.618, 521.630 459.850 C 484.924 438.043, 480.776 397.199, 508.793 333.448 C 533.032 278.294, 567.329 253.255, 632 243.497 C 714.270 231.083, 763.254 196.310, 796.460 126.749 C 810.546 97.242, 829.063 22, 822.239 22 C 821.734 22, 820.698 20.088, 819.938 17.750 C 810.226 -12.118, 769.517 -3.405, 764.560 29.602 C 749.754 128.174, 711.209 170.709, 623.287 185.497 C 506.805 205.087, 459.271 259.075, 427.482 407.886 C 419.837 443.673, 413.523 466, 411.047 466 C 408.776 466, 400.740 436.383, 391.510 394 C 362.716 261.777, 310.601 203.623, 206 186.991 C 111.667 171.992, 69.717 126.800, 56.997 26.474 C 54.599 7.560, 37.350 -4.345, 19.994 0.934 M 387 19.579 C 385.075 19.800, 378.550 20.462, 372.500 21.051 C 299.149 28.191, 208.544 63.680, 171.238 99.884 C 140.874 129.352, 179.881 164.602, 215 139.431 C 328.727 57.920, 493.272 57.638, 606.227 138.760 C 629.155 155.226, 647.862 153.289, 657.571 133.444 C 667.277 113.605, 652.998 96.208, 604.500 68.782 C 543.213 34.124, 447.988 12.583, 387 19.579 M 0.336 30 C 0.336 34.125, 0.513 35.813, 0.728 33.750 C 0.944 31.688, 0.944 28.313, 0.728 26.250 C 0.513 24.188, 0.336 25.875, 0.336 30" stroke="none" fill="#FF5F1F" fill-rule="evenodd"/></svg>